<svg xmlns="http://www.w3.org/2000/svg" xmlns:xlink="http://www.w3.org/1999/xlink" version="1.1" x="0px" y="0px" viewBox="0 0 100 125" enable-background="new 0 0 100 100" xml:space="preserve"><circle cx="51" cy="61" r="3"/><path d="M80,44v-6h-7v-3h4v-6h-4v-5h-6v5H35v-5h-6v5h-5v6h5v3h-8v6h8v32h-2v2h10v-2h-2V44h5.323l2.708,6.763  C39.877,53.214,38,56.971,38,61c0,7.168,5.832,13,13,13s13-5.832,13-13c0-4.029-1.878-7.787-5.032-10.236L61.677,44H67v32h-2v2h10  v-2h-2V44h3v14.185c-1.161,0.414-2,1.514-2,2.815c0,1.654,1.346,3,3,3s3-1.346,3-3c0-1.302-0.839-2.401-2-2.815V44H80z M51,66  c-2.757,0-5-2.243-5-5s2.243-5,5-5s5,2.243,5,5S53.757,66,51,66z M57.271,49.62C55.361,48.562,53.22,48,51,48  c-2.221,0-4.364,0.562-6.271,1.62L42.479,44h17.043L57.271,49.62z M67,38H35v-3h32V38z"/></svg>
